<svg xmlns="http://www.w3.org/2000/svg" viewBox="0 0 221.52 61.22"><defs><style>.cls-1{isolation:isolate;}.cls-2{mix-blend-mode:hard-light;}</style></defs><g class="cls-1"><g id="Layer_2" data-name="Layer 2"><g id="_7" data-name="7"><path class="cls-2" d="M176.2,59.2c0-.5-.1-.58-.6-.58l-4.19,0c-.55,0-.61-.09-.61-.65q0-14,0-28a12.45,12.45,0,0,0-1.44-5.86,9.9,9.9,0,0,0-4.67-4.39,14.23,14.23,0,0,0-6-1.3,13.82,13.82,0,0,0-3.77.51,13.44,13.44,0,0,0-3.77,1.57,31.45,31.45,0,0,0-3.52,2.58,17.39,17.39,0,0,0-3.21,3.58,2.57,2.57,0,0,1-.45.42l-.1,0v-.56c.07-2.61.15-5.22.22-7.84,0-.46-.15-.6-.58-.49l-3.43.85-3,.75-3.65.95-3.42.89c-.55.15-1.1.26-1.64.43-.21.06-.54.21-.55.34a.9.9,0,0,0,.26.7c1.48,1.34,3,2.65,4.47,3.95a1.53,1.53,0,0,1,.68,1.53,2.68,2.68,0,0,0,0,.49q0,14,0,27.9c0,.4,0,.81,0,1.22s-.13.47-.48.45-.73,0-1.09,0c-.76,0-1.51,0-2.27,0l0-.16a1.79,1.79,0,0,0,.47-.1c.14-.06.36-.17.37-.29a.62.62,0,0,0-.21-.46,7.74,7.74,0,0,0-.73-.43c-.94-.63-1.87-1.29-2.82-1.91a3.26,3.26,0,0,1-1.64-3c.08-7.12.08-14.24.11-21.35a15.64,15.64,0,0,0-.55-4.41,10.56,10.56,0,0,0-3.33-5.17,10.73,10.73,0,0,0-3.4-1.93,16.81,16.81,0,0,0-5-1,27.43,27.43,0,0,0-7.22.73q-1.78.39-3.54.87c-.93.25-1.85.53-2.76.83-1.21.4-2.4.82-3.6,1.25-.92.33-1.84.7-2.76,1.07-.35.14-.46.39-.28.66.51.79,1,1.58,1.55,2.36L95.94,29c.43.64.84,1.29,1.28,1.92.25.36.49.36.79,0,.69-.74,1.36-1.5,2-2.23,1.61-1.71,3.19-3.43,4.86-5.08a30.17,30.17,0,0,1,3.23-2.74,3.68,3.68,0,0,1,4.64.73,6.6,6.6,0,0,1,1.41,4.15c.07,2.57,0,5.15.07,7.72a.55.55,0,0,1-.53.63c-1,.19-2.1.39-3.15.61-.65.13-1.29.28-1.94.46-1,.28-2.08.56-3.12.87-.86.27-1.73.54-2.56.88-1.13.45-2.25.93-3.34,1.46A22.22,22.22,0,0,0,96.81,40a29,29,0,0,0-3,2.37,11.85,11.85,0,0,0-2.59,3.41,9.56,9.56,0,0,0-1.1,3.49,15,15,0,0,0-.06,3,8.94,8.94,0,0,0,1.08,3.54A9.74,9.74,0,0,0,93,58.27a11.71,11.71,0,0,0,6.53,2.81,14.7,14.7,0,0,0,9.23-1.85,14.87,14.87,0,0,0,3.91-3.2c.56-.63,1.05-1.32,1.64-2.07a4.15,4.15,0,0,1,.1.6c0,2,0,3.93,0,5.9,0,.52.13.65.62.57.86-.14,1.71-.29,2.56-.45l4.78-.9,4.84-.88c.41-.08.54,0,.57.43.05,1.08.05,1.08,1.14,1.08h19.68c.93,0,1,0,1-.94,0-.71,0-.74-.72-.75-1.37,0-2.74,0-4.11,0-.53,0-.64-.12-.64-.6,0-2.11,0-4.21,0-6.31q0-10.94,0-21.88a1.18,1.18,0,0,1,.26-.69,13.93,13.93,0,0,1,4-3.4,9.48,9.48,0,0,1,3.43-1.19,7.36,7.36,0,0,1,4,.36,7.63,7.63,0,0,1,1.93,1.18,6.63,6.63,0,0,1,1.8,3.2,14.3,14.3,0,0,1,.42,4.32c0,2.91,0,5.82,0,8.74q0,7.83,0,15.65c0,.5-.12.61-.59.62-1.27,0-2.54,0-3.82,0s-1.07,0-1.05,1.19c0,0,0,0,0,0a.46.46,0,0,0,.5.47c.36,0,.71,0,1.06,0h19C176.21,60.31,176.21,60.31,176.2,59.2Zm-61.93-7.93a2.75,2.75,0,0,1-.66,1.17,10.8,10.8,0,0,1-3.2,2.57,7.8,7.8,0,0,1-5.31.81,5.51,5.51,0,0,1-3.6-2.5,7.54,7.54,0,0,1-1.07-4.91,10.36,10.36,0,0,1,2.37-5.5,15.91,15.91,0,0,1,4-3.63,39.92,39.92,0,0,1,4-2.16,26.4,26.4,0,0,1,2.72-1.06c.54-.19.68-.06.68.51q0,3.38,0,6.75h0V49.5A9.5,9.5,0,0,1,114.27,51.27Z"/><path class="cls-2" d="M35.09,28.12c.62.12,1.24.26,1.86.36a24.65,24.65,0,0,1,6,1.8,16.31,16.31,0,0,1,5.43,3.82,13.5,13.5,0,0,1,2.25,3.45,15.18,15.18,0,0,1,1.21,8.08A13.47,13.47,0,0,1,50,51.2a15.52,15.52,0,0,1-3.81,4.22,15.73,15.73,0,0,1-3.88,2.27,39.27,39.27,0,0,1-4.42,1.55,37,37,0,0,1-5,.82c-1.63.18-3.27.23-4.91.25-3,0-5.94,0-8.91,0l-18.09,0c-.81,0-.88-.08-.86-.88s0-.86.91-.9c1.82-.06,3.63-.15,5.45-.22.36,0,.47-.2.47-.55,0-3.35,0-6.7,0-10,0-2.83,0-5.66,0-8.49q0-9.43,0-18.86c0-5.89,0-11.77,0-17.65,0-.61-.09-.7-.7-.72L.7,1.89c-.53,0-.68-.2-.69-.72C0,0,.07,0,1.22,0c9.09,0,18.17,0,27.25,0A39.93,39.93,0,0,1,33,.23a37.17,37.17,0,0,1,4.57.86A21.83,21.83,0,0,1,41.07,2.3a15.75,15.75,0,0,1,4.38,2.88,13.12,13.12,0,0,1,3,4.12,12.55,12.55,0,0,1,1,4.32,12.07,12.07,0,0,1-.64,4.88,11.29,11.29,0,0,1-2.19,3.76,14.66,14.66,0,0,1-3.72,3,20.28,20.28,0,0,1-4.83,2c-.92.25-1.84.46-2.76.69l-.22.06Zm-16.52,16h0V57.75c0,.5.08.59.59.59,2.65,0,5.29,0,7.93,0a14.44,14.44,0,0,0,6.56-1.43,9.71,9.71,0,0,0,2.91-2.22,10.85,10.85,0,0,0,2.26-4,15.33,15.33,0,0,0,.72-3,25.54,25.54,0,0,0-.29-8.32,13.71,13.71,0,0,0-1.47-3.9,10.75,10.75,0,0,0-4.48-4.33,9.3,9.3,0,0,0-3.38-1.08c-1.74-.13-3.49-.14-5.23-.16s-3.64,0-5.45,0c-.56,0-.63.06-.63.57Zm0-29.09h0V27.2c0,.61,0,.66.68.66,2.31,0,4.61,0,6.91,0a11.87,11.87,0,0,0,4.38-.7,10.31,10.31,0,0,0,4-2.58A10.94,10.94,0,0,0,37,20.3,17,17,0,0,0,37.8,17a16.76,16.76,0,0,0-.7-7.5,12.12,12.12,0,0,0-1.47-2.92,9.38,9.38,0,0,0-2.94-2.84A10.59,10.59,0,0,0,29,2.33a27.83,27.83,0,0,0-3.76-.25c-2,0-4,0-5.94,0-.57,0-.71.12-.71.67Z"/><path class="cls-2" d="M76.26,37.09H63.49c-.43,0-.57.14-.52.56.2,1.53.34,3.08.63,4.59a16,16,0,0,0,1.48,4.1,14.09,14.09,0,0,0,2.45,3.46,11.55,11.55,0,0,0,3.13,2.28,12.65,12.65,0,0,0,8.13,1.17,18.65,18.65,0,0,0,3.57-.89A14,14,0,0,0,87,49.55c.78-.75,1.47-1.58,2.21-2.36.17-.18.28-.47.62-.29s.23.4.15.66c-.29.9-.51,1.83-.84,2.71A15.63,15.63,0,0,1,87,54.19a16.74,16.74,0,0,1-3,3.15,18.16,18.16,0,0,1-4.71,2.73,17.88,17.88,0,0,1-6.16,1.15,26,26,0,0,1-4.39-.44,16.5,16.5,0,0,1-2.93-.8A14.18,14.18,0,0,1,62,58.1c-.8-.58-1.6-1.17-2.35-1.8a16.59,16.59,0,0,1-3.35-3.93,20.18,20.18,0,0,1-2.27-4.87c-.38-1.28-.61-2.61-.87-3.92A18.82,18.82,0,0,1,53,38.84a40.47,40.47,0,0,1,.54-4.39,22.11,22.11,0,0,1,.84-3.17,20.38,20.38,0,0,1,2.17-4.42,18.39,18.39,0,0,1,3.39-3.92,15,15,0,0,1,4-2.64q1.65-.69,3.33-1.26a10.19,10.19,0,0,1,1.9-.4,25.86,25.86,0,0,1,3.28-.25,18.29,18.29,0,0,1,3.54.4A24.15,24.15,0,0,1,79.84,20a13.77,13.77,0,0,1,2.63,1.51,14.85,14.85,0,0,1,3.37,3.25,17.72,17.72,0,0,1,2,3.31,18.5,18.5,0,0,1,1.54,5.33,31.67,31.67,0,0,1,.15,3.24c0,.34-.2.42-.51.42H76.26Zm-5.12-2h7.65c.24,0,.49,0,.46-.36-.15-1.52-.27-3-.46-4.56a11.81,11.81,0,0,0-.42-2,19.26,19.26,0,0,0-1.53-4,7.24,7.24,0,0,0-3-3.16,5,5,0,0,0-5.24.35,6.4,6.4,0,0,0-2.11,2c-.43.68-.88,1.34-1.24,2a15.16,15.16,0,0,0-1.45,4.2c-.23,1.25-.44,2.5-.65,3.75-.06.4-.1.81-.16,1.21s.08.58.5.58Z"/><path class="cls-2" d="M198.18,52.92a6.21,6.21,0,0,0-2.27-5,16.54,16.54,0,0,0-5.14-3c-1-.39-1.89-.81-2.83-1.21s-1.79-.77-2.69-1.14a16.94,16.94,0,0,1-7.51-5.47,11.14,11.14,0,0,1-2.2-6.38,11.27,11.27,0,0,1,.37-3.7,10.38,10.38,0,0,1,1.83-3.5,12.81,12.81,0,0,1,4.42-3.44c.73-.36,1.54-.56,2.31-.85a13.41,13.41,0,0,1,4.1-.78,38.56,38.56,0,0,1,4.3.06c1.37.08,2.75.25,4.12.43,1.07.14,2.13.35,3.2.53.76.14,1.51.31,2.27.43a.54.54,0,0,1,.52.56c.09,1,.2,1.94.3,2.91.21,2,.42,4,.62,6,0,.05,0,.11,0,.16s-.06.44-.16.49a.63.63,0,0,1-.51-.14c-1-.86-2-1.75-3-2.61s-2.17-1.92-3.3-2.82-2.53-2-3.84-2.92a5.8,5.8,0,0,0-6.74-.28,5.6,5.6,0,0,0-2.84,5.79,6.81,6.81,0,0,0,3.21,4.85,25.66,25.66,0,0,0,4.92,2.45c1.68.67,3.36,1.35,5,2.09a21,21,0,0,1,5,3.06,13.63,13.63,0,0,1,3.32,4,11.36,11.36,0,0,1,1.22,7.24,10.45,10.45,0,0,1-2.86,5.78,13.89,13.89,0,0,1-5.09,3.33,20.52,20.52,0,0,1-5.44,1.2,30.59,30.59,0,0,1-8.17-.53c-1.91-.33-3.79-.88-5.68-1.36-.64-.17-1.25-.42-1.88-.63a.71.71,0,0,1-.53-.64c-.2-2.19-1-9.81-1-10.23a.47.47,0,0,1,.14-.47c.17-.14.41.07.52.19,2.34,2.39,4.63,4.83,7,7.19a40.05,40.05,0,0,0,3.54,3.08,6.57,6.57,0,0,0,4.49,1.48,8.83,8.83,0,0,0,3.85-1A5.61,5.61,0,0,0,197.44,56,5.67,5.67,0,0,0,198.18,52.92Z"/><polygon class="cls-2" points="221.52 51.83 215.97 51.83 214.26 46.56 212.54 51.83 207 51.83 211.48 55.09 209.77 60.37 214.26 57.11 218.74 60.37 217.03 55.09 221.52 51.83"/></g></g></g></svg>