<?xml version="1.0" encoding="utf-8"?>
<!-- Generator: Adobe Illustrator 26.0.3, SVG Export Plug-In . SVG Version: 6.00 Build 0)  -->
<svg version="1.1" id="Layer_1" xmlns="http://www.w3.org/2000/svg" xmlns:xlink="http://www.w3.org/1999/xlink" x="0px" y="0px"
	 viewBox="0 0 49.9 49.9" style="enable-background:new 0 0 49.9 49.9;" xml:space="preserve">
<g id="Layer_2_00000080910449213458855040000011550966719216424326_" transform="translate(2.115 2.113)">
	<g id="Layer_1_00000060735272252486598920000013596504129130804387_">
		<path id="Rectangle_183" d="M9.3,1.5l34.8,34.8c2,2,2,5.2,0,7.2l-0.6,0.6c-2,2-5.2,2-7.2,0L1.5,9.3c-2-2-2-5.2,0-7.2l0.6-0.6
			C4.1-0.5,7.3-0.5,9.3,1.5z"/>
		<path id="Rectangle_184" d="M1.5,36.3L36.3,1.5c2-2,5.2-2,7.2,0l0.6,0.6c2,2,2,5.2,0,7.2L9.3,44.2c-2,2-5.2,2-7.2,0l-0.6-0.6
			C-0.5,41.6-0.5,38.3,1.5,36.3z"/>
	</g>
</g>
</svg>
