<svg xmlns="http://www.w3.org/2000/svg" viewBox="0 0 30.1 28.73"><defs><style>.cls-1{isolation:isolate;}.cls-2{mix-blend-mode:hard-light;}</style></defs><g class="cls-1"><g id="Layer_2" data-name="Layer 2"><g id="_7" data-name="7"><path class="cls-2" d="M16,.7l2.86,8.81a1,1,0,0,0,1,.69h9.26a1,1,0,0,1,.6,1.83l-7.5,5.44a1,1,0,0,0-.36,1.13l2.86,8.81a1,1,0,0,1-1.55,1.12l-7.5-5.44a1,1,0,0,0-1.18,0L7,28.53a1,1,0,0,1-1.56-1.12L8.28,18.6a1,1,0,0,0-.37-1.13L.42,12A1,1,0,0,1,1,10.2h9.26a1,1,0,0,0,1-.69L14.09.7A1,1,0,0,1,16,.7Z"/></g></g></g></svg>